<svg id="Layer_1" data-name="Layer 1" xmlns="http://www.w3.org/2000/svg" viewBox="0 0 800 200"><defs><style>.cls-1{fill:#122a57;}</style></defs><title>Artboard 1</title><path class="cls-1" d="M83.2,15.6C48.5,21.9,22,46.6,13.4,80.5,11.6,87.6,11.3,91,11.7,103s.8,15.1,3.7,23.6c7.6,22.3,22.3,39.1,43.4,49.5a82.7,82.7,0,0,0,33.7,8.8l8.5.2.3-5.3.3-5.2H93.4c-10.2,0-19-2.1-29.4-7-26.5-12.4-42.5-37.2-42.7-66.5-.2-12.7,2-22.2,7.8-34C46.7,30.9,88,15.3,125.2,30.7c14.2,6,28,18,35.4,30.8l3.4,6h10.5L173.1,64c-2.7-6.4-10.4-17.2-16.8-23.7C140.6,24.4,121.3,15.8,99,15,93,14.9,85.8,15.1,83.2,15.6Z"/><path class="cls-1" d="M145.2,17.4a5.1,5.1,0,0,0-1.7,3c0,1.4,15.9,14.2,17.7,14.2s3.8-4.4,3-6.4-14.8-12.6-16.4-12.6A4.8,4.8,0,0,0,145.2,17.4Z"/><path class="cls-1" d="M92.9,33.2c-1,3.7.7,7.9,3.1,7.9s2-.7,2-5-.3-5-2.2-5.3S93.4,31.1,92.9,33.2Z"/><path class="cls-1" d="M94.1,59.8c-.3,2.9-.8,10-1.1,15.8s-1.1,13.8-1.7,17.9c-1.1,7.3-1.1,7.5,1.3,9.3,6.5,5.1,28.2,18.7,29,18.2s.4-3.4-9.6-12.7c-8-7.5-10.6-10.5-11-13s-1.1-11.5-1.8-21.7c-1-15.9-1.4-18.5-2.9-18.8S94.6,55.5,94.1,59.8Z"/><path class="cls-1" d="M723.5,74.5c-12.6,2.9-13,3.1-13,4.6s1,1.5,2.9,1.5a8.9,8.9,0,0,1,5,1.8c2.2,1.7,2.2,1.8,2.2,44.1-.1,30-.4,42.8-1.2,43.7a9.5,9.5,0,0,1-4.2,2.2c-1.7.4-3.2,1.3-3.5,2s3.6,1.2,15.7,1.2c13.6,0,16.1-.2,16.1-1.5a1.7,1.7,0,0,0-1.8-1.5,8.7,8.7,0,0,1-4-1.6c-2.2-1.5-2.2-1.9-2.2-23.6,0-24.6.3-26,7-30.1,4.6-2.8,13.3-3,17.4-.2s5.6,6.2,5.6,30.9.1,23.4-5.3,24.5c-1.7.4-3.2,1.2-3.5,1.9s3.5,1.2,15.7,1.2,16.1-.2,16.1-1.5a1.7,1.7,0,0,0-1.9-1.5h0a10.7,10.7,0,0,1-4.2-1.9c-2.4-1.9-2.4-2.2-2.9-26.3-.5-26.4-.7-27.4-6.7-33-3.8-3.7-7.3-4.8-14.6-4.8s-12.7,2.2-18.6,7.5l-4.1,3.7-.2-22.4C735,69.6,736.1,71.6,723.5,74.5Z"/><path class="cls-1" d="M115.7,81.8c.2.6,2.3,1.7,4.6,2.4,7.7,2.2,7.2-.9,7.2,43.9s.5,42-7.3,44c-2.2.6-4.2,1.6-4.5,2.3s3.3,1.2,14.5,1.3l37.6.5c17.4.3,22.9.1,23.2-.9s1.1-6.6,1.8-13.2c1-8.5,1.1-12.2.3-12.7s-3.4,1-5.1,6.2c-2.4,7.1-6.7,12.6-11.2,14.1-2.3.8-9.1,1.3-17.1,1.3-12.1.1-13.5-.1-14.8-1.8s-1.4-6.1-1.4-20.9V129.4l11.6.4c10.7.3,11.7.5,13.4,2.6a17.7,17.7,0,0,1,2.6,6.7c.5,3.5,1,4.5,2.5,4.5s1.9-1,1.9-17c0-13.8-.3-17-1.4-17s-2.2,2.4-3.2,5.7c-2.6,7.8-5.5,9.3-18.2,9.3h-9.2l.2-19.8.3-19.7,13.7.2c9.3.1,14.7.7,17.2,1.7S184,95.2,185,99.6a7.8,7.8,0,0,0,2.1,4c2.3,2,2.7-1,1.9-12.5l-.7-10.5H151.8C124.7,80.6,115.4,80.9,115.7,81.8Z"/><path class="cls-1" d="M602.8,87.6c-2.2.9-2.3,1.5-2.3,10.5v9.5H595c-5.2,0-5.5.1-5.5,2.5s.3,2.5,5.4,2.5h5.5l.3,26.7c.3,24.9.4,27,2.4,30.3,4.9,8.4,17.3,10.5,26.9,4.5,5.6-3.5,7.5-5.9,5.9-7.5s-2.1-.6-4.5.9a17.7,17.7,0,0,1-7.1,2.1c-9.4,0-9.8-1.3-9.8-31.4V113.7l9.3-.3,9.2-.3.3-2.8.3-2.7h-19l-.3-10.3L614,87.1l-4.5-.2A18.9,18.9,0,0,0,602.8,87.6Z"/><path class="cls-1" d="M26.9,98.1c-1.3,3.2.4,4.6,4.8,4.3s4.4-.8,4.6-2.2a2.8,2.8,0,0,0-1-2.7C33.1,96.1,27.5,96.5,26.9,98.1Z"/><path class="cls-1" d="M299.5,106.9a34.7,34.7,0,0,0-21.4,18.6c-1.8,3.9-2.1,6.5-2.1,16.6s.3,12.7,2.4,17.2c2.7,6.1,9.3,12.6,15.9,15.6,3.8,1.8,6.6,2.2,14.2,2.2s10-.3,14.9-3,12.1-9.7,12.1-12.2-3.2-1.4-7.1,2.1c-8.9,8.1-22.4,7.5-31-1.3-4.9-5.1-6.9-10.4-6.9-18.5v-4.6l22.8-.2,22.7-.3-.3-6c-.5-10.7-6.8-20.5-15.9-24.6C314.4,106,305.2,105.3,299.5,106.9Zm15.6,5.2c3.6,2.3,5.8,8.3,5.9,16v7H291l.3-4.9C292,115.3,304.8,105.6,315.1,112.1Z"/><path class="cls-1" d="M544,106.6c-12,1.8-20.5,8.6-20.5,16.4,0,3.4,4.6,6.9,8,6.1s6.1-3.8,6.9-10,2.6-8.5,9.6-8.5c9.1,0,12.5,4.7,12.5,17.4,0,8.3.3,7.9-8,9.1s-19.5,5.4-23.9,8.6a17.9,17.9,0,0,0-6.2,22.5c5.1,11.1,20.8,12.3,33.7,2.5l5.1-3.8,1.2,3.4c1.7,4.5,5.3,6.7,11.1,6.6s12.2-2.9,11.8-5.2-1.2-1.5-3.3-1.3a8.6,8.6,0,0,1-5-1.2c-1.9-1.3-2-3-2.5-24.8s-.7-23.6-2.8-27.5c-3.5-6.7-8.3-9.2-20.2-10.8A37.8,37.8,0,0,0,544,106.6Zm16.5,44.3c0,11.1-.1,11.4-2.7,13.9-5.9,5.6-14.4,6.5-19.4,2-2.7-2.5-3.1-3.4-3.1-8,0-9.4,5.2-14.4,18.7-17.8,2.8-.7,5.3-1.3,5.8-1.3S560.5,144.7,560.5,150.9Z"/><path class="cls-1" d="M671.3,106.6c-6,1.1-14.1,5.5-17.9,9.7-9.5,10.9-12.1,29-6.1,42.6,7.7,17.4,32.2,24.2,47.7,13.3,6-4.3,9.9-9.5,8.4-11.3s-2-.5-5.6,2.7c-8.1,7.1-20.4,7.9-28.5,1.7-6.4-4.9-9.1-11.1-9.6-22.2s1-18.9,4.8-24.7,8-8.1,13.2-8.1c7.5,0,10.8,3.6,10.8,11.8,0,5.6,2.5,8.5,7.4,8.5s8.9-5.1,6.1-11.6a25.1,25.1,0,0,0-3.6-6.1C693.6,107.9,680.9,104.9,671.3,106.6Z"/><path class="cls-1" d="M358.5,108.7l-9.7,2.4c-3.2.8-2.9,3.3.5,4.1,5.5,1.2,6.1,1.5,6.8,3.7s.7,12.9.7,26.1c.1,23.7,0,23.9-2.2,25.7a9.2,9.2,0,0,1-4.7,1.9c-1.5,0-2.4.6-2.4,1.5s2.6,1.5,17.6,1.5c13.4,0,17.5-.3,17.2-1.2s-2.2-1.6-4.3-2c-6.6-1.4-6.5-.9-6.5-23.5,0-18.1.2-20.8,1.9-24.1,4-7.8,10.5-11.2,13.8-7.1s5.4,5.9,8.3,5.9c7,0,9.5-8.6,4.1-14.1s-14.4-3.9-20.9,2.4a39.2,39.2,0,0,0-5.5,6.7l-2.2,3.5-.5-7.5C369.9,105.8,370,105.8,358.5,108.7Z"/><path class="cls-1" d="M197.5,109.1c0,.8,1.5,2.1,3.3,2.8,3.8,1.6,3.5,1.1,19,37.7,10.3,24.3,11.4,26.5,13.8,26.8s4.1-.8,5.7-5.3,21.2-52.6,22.7-55.5a8.6,8.6,0,0,1,5-4c1.9-.6,3.5-1.8,3.5-2.6s-2.3-1.4-12-1.4-12,.3-12,1.4,1.9,2,4.3,2.8,4.2,1.6,4.1,4.3-15.6,42.7-16.6,41.7-13.9-31.8-16.1-38.3-.9-7.6,3-8.1c1.7-.2,2.9-1,3.1-2.1s-.9-1.7-15.2-1.7S197.5,107.8,197.5,109.1Z"/><path class="cls-1" d="M405.9,108.7c-.7,1.1,1.2,2.9,3.2,2.9s6.3,6.9,16.3,33.9c5.9,16.1,11.3,29.7,11.8,30.2a5,5,0,0,0,3.4.7c2-.3,3.3-3,10.5-22.3l8.7-23c.8-2,2.1.8,10.2,22.7s8.4,22.3,11.1,22.3,3-.4,13.1-28.5c12.7-35.3,12.4-34.7,16.5-35.8,1.8-.4,3.4-1.6,3.6-2.5s-.9-1.7-11.2-1.7-11.6.3-11.6,1.5,1.6,1.9,4,2.5,4,1.5,4,3.8-2.9,11-6.5,21-6.5,18.6-6.5,19.3-.5.9-1.1.7-14.9-37.3-14.9-40.9.5-3,2.8-3.5c4.7-1,5.2-1.3,5.2-2.9s-2.3-1.5-16-1.5-16,.3-16,1.3,1.7,2.1,3.9,2.9,4.2,2.4,5.7,6.3,1.7,5.1.3,8.9c-7.7,20.8-11.5,30.6-12,30.6s-14.9-39.8-14.9-42.5.7-2.6,3.2-3.3,3.4-1.6,3.6-2.5-1.1-1.7-14.7-1.7C411.7,107.6,406.4,108,405.9,108.7Z"/><path class="cls-1" d="M93.7,159.8c-1.7,1.7-1.5,7.3.3,8.8s4.6.4,4.3-4.7S96.2,157.3,93.7,159.8Z"/></svg>