<svg id="Layer_1" data-name="Layer 1" xmlns="http://www.w3.org/2000/svg" viewBox="0 0 1000 250"><title>Artboard 1</title><path d="M178.5,164.5h29.6c.1,2,.2,3.8.3,5.6a57.6,57.6,0,0,0,4.1,20.5,40.4,40.4,0,0,0,17.7,20.7,85.3,85.3,0,0,0,33.7,11,88,88,0,0,0,31.5-1.9c8.7-2.3,16.8-5.8,23.6-11.6,12.6-10.6,17.2-24.4,15.5-40.5s-10.5-23.6-24.1-28.2a95.6,95.6,0,0,0-21.2-4l-4.2-.5V107.4a14.6,14.6,0,0,1,2.1,0c9.1,1.6,18.2,3,27.2,5a67.9,67.9,0,0,1,26.4,11.9,51,51,0,0,1,17,23.2c8.2,22.2,6.3,43.7-5.9,64-5.5,9-13.5,15.5-22.3,21.1-12.3,7.8-25.9,11.9-40.3,13.8-21.1,2.8-41.5-.1-61.4-7-13-4.6-23.5-12.8-32.3-23.4s-13.1-19.8-14.9-31.8C179.6,177.8,179.2,171.3,178.5,164.5Z"/><path d="M612,33.9V6.8l2.1-.2c25.8.1,51.5,0,77.3.3a61.5,61.5,0,0,1,33.8,10.2c10.9,7.1,17.8,17.2,21.6,29.4,5.1,17,4.9,34-1.3,50.7s-17.8,27.1-34.3,32.6c-8.9,3.1-18.2,3.9-27.6,4H612.4c-.7-2-.9-23.4-.2-27.4h73.7c6.1,0,12.1-.7,17.8-3.2a25.4,25.4,0,0,0,11-8.1,26.5,26.5,0,0,0,3.7-6.8c3.6-10.5,4.5-21.2,1.5-32a31.3,31.3,0,0,0-5.4-10.8c-4.2-5.6-10.2-8.3-16.9-9.7S682.6,34,675,34H614Z"/><path d="M356.9,72.9H329.4l-.9-5.4c-2.1-11.6-7.1-21.7-16.3-29.4-5.2-4.4-11.3-6.9-17.8-8.5-17.7-4.6-35.2-4.4-52.5,2.1-8,3-15.3,7.3-20.6,14.3-7.8,10.4-9.8,22-6,34.4,2.4,7.5,7.6,12.8,14.6,16.4s15.1,5.5,23.2,6.5l5.6.7v28.4l-6-.8c-8.6-1.4-17.3-2.7-25.7-5.2a64.9,64.9,0,0,1-19.6-9.1c-8.5-6-14-14.3-17.5-24.1-5.6-15.6-4.6-31.1,1-46.6A62.5,62.5,0,0,1,200,30a63.6,63.6,0,0,1,20.6-16.9,86.6,86.6,0,0,1,29.4-9,159.9,159.9,0,0,1,39.1-.7c14.5,1.6,28,6.1,40,14.5s20,20,24.3,34.1a110.8,110.8,0,0,1,3.7,19.9A8.4,8.4,0,0,1,356.9,72.9Z"/><path d="M429.2,34.1V6.9a19,19,0,0,1,2.5-.3c17.8.1,35.6,0,53.3.3a63.8,63.8,0,0,1,34.6,10.7,48.6,48.6,0,0,1,19.3,23.8c6.6,17.4,7.5,35.1,1.6,52.8-6.6,19.8-20.3,32-40.6,36.7-10.2,2.4-20.5,2.7-30.9,2.9H431.7l-2.7-.2c0-9,0-18,.1-27.3h51c5.8,0,11.5-.6,16.9-2.8,8.4-3.4,14.1-9.2,16.4-18.1a59.1,59.1,0,0,0,1-27.1c-2.8-14-11.6-20.8-24.4-23.1a106.7,106.7,0,0,0-14.9-1.1c-14.2-.1-28.3,0-42.5,0Z"/><path d="M403.2,240.5H375V7.1c2-.6,25.1-.8,28.2-.1Z"/><path d="M555.2,6.8h27.6V240.5H555.3C554.7,238.5,554.5,10.6,555.2,6.8Z"/><path d="M795.6,240.5H767.9c-.6-2.1-.7-229.4-.2-233.4,2.1-.6,24.7-.7,27.9-.1Z"/><path d="M888.4,57.6h27.7V240.5H888.5l-.2-.2c0-.1-.1-.1-.1-.2a13.6,13.6,0,0,1-.2-2q0-90,.1-179.9C888.1,58.1,888.3,57.9,888.4,57.6Z"/><path d="M1000,6.8V33.9H811c-.6-2.1-.8-23.6-.1-27.1Z"/><path d="M171.2,106.4v26.9c-2.1.6-167.1.8-171,.2V106.4Z"/><path d="M171.2,213.4v27.1H.5c-.6-2-.7-23.4-.1-27.1Z"/><path d="M171.2,6.8V33.9H.2V6.8Z"/><path d="M760.8,240.5l-2.1.2H731.3a3.6,3.6,0,0,1-3.5-1.9q-24.7-39.5-49.6-78.9l-1.1-2.2,2.5-.2H707a4,4,0,0,1,3.7,2c16.3,26.4,32.6,52.6,49,78.9Z"/></svg>