<svg xml:space="preserve" style="enable-background:new 0 0 359.8 76.69;" viewBox="0 0 359.8 76.69" height="76.69px" width="359.8px" y="0px" x="0px" xmlns:xlink="http://www.w3.org/1999/xlink" xmlns="http://www.w3.org/2000/svg" id="Layer_1" version="1.1">
<g>
	<g>
		<path d="M46.56,38.12l1.15,0.07c4.54,0.28,6.07,1.06,6.57,1.51c0.38,0.33,1.25,1.61,1.25,6.44V62.4c0,0.78-0.18,1.34-0.52,1.68
			c-0.21,0.2-1.02,0.78-4.07,1.78c-1.42,0.47-2.94,0.82-4.52,1.04c-1.59,0.22-2.99,0.34-4.17,0.34c-6.89,0-12.76-2.54-17.45-7.54
			c-4.71-5.02-7.1-12.16-7.1-21.2c0-11.01,2.39-18.98,7.09-23.69c4.71-4.71,10.23-7.09,16.41-7.09c6.15,0,11,1.96,14.8,5.98
			c2.12,2.31,4.23,5.92,6.26,10.72l0.32,0.75h4.43L66.12,1.23h-4.26L61.55,2c-0.36,0.89-0.79,1.56-1.26,2
			c-0.21,0.2-0.79,0.52-2.28,0.52c-0.18,0-1.17-0.14-6.25-1.6c-3.92-1.13-7.95-1.69-12.01-1.69c-11.25,0-20.42,3.91-27.25,11.63
			c-6.19,6.98-9.33,15.48-9.33,25.25c0,11.13,3.95,20.14,11.75,26.76c7.04,5.98,15.8,9.02,26.03,9.02c5.53,0,11.35-1.03,17.32-3.06
			c8-2.72,9.64-4.35,9.64-5.95V44.79c0-2.86,0.56-4.8,1.63-5.62c0.35-0.28,1.38-0.78,4.35-0.98l1.15-0.08v-4.27H46.56V38.12z"></path>
		<path d="M130.62,6.67l1.11,0.11c3.35,0.33,5.7,1.12,6.8,2.29c0.62,0.66,1.66,2.78,1.66,9.6v26.58c0,6.29-0.76,10.96-2.26,13.9
			c-2.66,5.19-7.79,7.71-15.71,7.71c-7.17,0-11.88-2.45-14.4-7.49c-1.37-2.81-2.07-6.83-2.07-11.97V14.73
			c0-4.43,0.84-5.84,1.34-6.29c0.53-0.48,2.13-1.33,6.89-1.66l1.15-0.08V2.43H83.7v4.27l1.14,0.09C89.5,7.14,91.08,8,91.6,8.48
			c0.49,0.45,1.32,1.86,1.32,6.25v31.91c0,6.5,1.14,11.84,3.4,15.85c4.2,7.57,12.15,11.4,23.61,11.4c11.6,0,19.61-3.89,23.81-11.56
			c2.25-4.12,3.39-9.87,3.39-17.09V18.66c0-6.6,0.96-8.76,1.54-9.46c0.68-0.83,2.44-1.93,6.93-2.42l1.1-0.12V2.43h-26.09V6.67z"></path>
		<path d="M225.42,53.46c-2.49,5.51-5.27,9-8.28,10.38c-3.11,1.43-8.1,2.16-14.81,2.16c-7.79,0-10.37-0.27-11.17-0.5
			c-0.25-0.07-1.03-0.29-1.03-2.41V39.04h14.52c5.18,0,6.84,0.96,7.38,1.53c0.71,0.76,1.74,2.63,2.63,7.25l0.19,1h4.64V22.77h-4.65
			l-0.19,1.01c-0.85,4.59-1.88,6.46-2.59,7.23c-0.53,0.58-2.21,1.54-7.42,1.54h-14.52V10.99c0-1.55,0.26-1.95,0.25-1.95
			c0,0,0.35-0.26,1.82-0.26h13.9c7.07,0,9.79,0.94,10.82,1.73c1.02,0.78,2.43,2.79,3.43,7.99l0.19,1h4.87L225,2.43h-56.68V6.7
			l1.14,0.08c4.54,0.32,6.05,1.21,6.54,1.71c0.48,0.49,1.29,1.95,1.29,6.24v45.42c0,4.68-0.86,5.91-1.24,6.23
			c-0.52,0.44-2.06,1.24-6.64,1.73l-1.1,0.12v4.23h57.37l5.3-19.71h-5.24L225.42,53.46z"></path>
		<path d="M276.7,32.83l-8.97-5.54c-3.22-1.98-5.62-3.89-7.13-5.69c-1.41-1.65-2.09-3.59-2.09-5.93c0-2.55,0.87-4.48,2.65-5.89
			c1.86-1.48,4.01-2.2,6.54-2.2c3.32,0,6.74,1.23,10.18,3.66c3.41,2.41,5.94,6.78,7.52,13.01l0.23,0.93h4.76l-2.5-24.2h-4.17
			l-0.23,0.94c-0.22,0.91-0.52,1.61-0.88,2.06c-0.23,0.28-0.83,0.44-1.62,0.44c-0.17-0.01-1.04-0.18-5.24-1.65
			c-3.39-1.19-6.36-1.79-8.81-1.79c-5.96,0-10.83,1.85-14.48,5.5c-3.65,3.65-5.5,8.27-5.5,13.73c0,4.18,1.56,8.05,4.66,11.5
			c1.63,1.77,3.82,3.53,6.53,5.25l8.7,5.43c4.91,3.06,8.15,5.37,9.62,6.84c2.18,2.25,3.23,4.8,3.23,7.82c0,3.35-1.02,5.86-3.14,7.7
			c-2.16,1.88-4.66,2.79-7.63,2.79c-5.68,0-10.31-2.19-14.15-6.7c-2.22-2.61-4.19-6.18-5.86-10.6l-0.3-0.8h-4.61l3.38,24.2h4.37
			l0.17-1.04c0.11-0.69,0.33-1.32,0.68-1.93c0.18-0.32,0.63-0.47,1.32-0.48c0.18,0.01,1.09,0.18,5.53,1.73
			c3.55,1.24,7.02,1.86,10.3,1.86c6.56,0,12.05-1.92,16.29-5.7c4.29-3.82,6.47-8.64,6.47-14.33c0-4.25-1.23-7.99-3.67-11.14
			C286.52,39.64,282.41,36.34,276.7,32.83z"></path>
	</g>
	<path d="M352.85,42.63c-2.38-2.99-6.49-6.29-12.19-9.8l-8.97-5.54c-3.22-1.98-5.62-3.89-7.13-5.69c-1.41-1.65-2.09-3.59-2.09-5.93
		c0-2.55,0.87-4.48,2.65-5.89c1.87-1.48,4.01-2.2,6.54-2.2c3.32,0,6.74,1.23,10.19,3.66c3.41,2.41,5.94,6.78,7.52,13.01l0.24,0.93
		h4.76l-2.5-24.2h-4.17l-0.23,0.94c-0.22,0.91-0.52,1.61-0.88,2.06c-0.23,0.28-0.83,0.44-1.62,0.44c-0.17-0.01-1.04-0.18-5.24-1.65
		c-3.39-1.19-6.36-1.79-8.81-1.79c-5.96,0-10.83,1.85-14.48,5.5c-3.65,3.65-5.5,8.27-5.5,13.73c0,4.18,1.57,8.05,4.66,11.5
		c1.63,1.77,3.82,3.53,6.53,5.25l8.71,5.43c4.91,3.06,8.15,5.37,9.62,6.84c2.17,2.25,3.23,4.8,3.23,7.82c0,3.35-1.03,5.86-3.14,7.7
		c-2.16,1.88-4.66,2.79-7.63,2.79c-5.68,0-10.31-2.19-14.15-6.7c-2.22-2.61-4.19-6.18-5.86-10.6l-0.3-0.8h-4.61l3.39,24.2h4.36
		l0.17-1.04c0.11-0.69,0.33-1.32,0.68-1.93c0.18-0.32,0.63-0.47,1.32-0.48c0.17,0.01,1.09,0.18,5.53,1.73
		c3.56,1.24,7.02,1.86,10.3,1.86c6.56,0,12.05-1.92,16.3-5.7c4.29-3.82,6.47-8.64,6.47-14.33
		C356.52,49.52,355.29,45.77,352.85,42.63z"></path>
</g>
</svg>
