<svg xmlns="http://www.w3.org/2000/svg" viewBox="0 0 834.9 391"><title>Lotus</title><g id="Capa_2" data-name="Capa 2"><g id="Capa_1-2" data-name="Capa 1"><g id="Capa_2-2" data-name="Capa 2"><g id="Capa_1-3" data-name="Capa 1"><polygon points="0 177.8 834.8 177.8 834.6 156.3 393.1 156.1 417.4 148.3 417.4 0 0 177.8"/><path d="M1.9,221.6V390.9H131.6V359.6H35.1v-138Z"/><path d="M177,222c-13.7,0-23.8,14.6-24,24.5V365.6c0,11.5,10.8,25.4,24,25.4H279.4c13.7,0,24.5-13.7,24.5-25.2V247c0-9.9-10.1-24.5-24.5-24.5Zm93,31.3V359.5H186.4V253.6C187.8,253.3,270,253.3,270,253.3Z"/><path d="M323.2,221.6v31.7h64V390.8h33.4V253.3h62.9V221.5H323.2Z"/><path d="M651.4,221.6H621.3V359.1c-.2.2-.2.2-.5.2H540.5a1,1,0,0,1-.5-.2c0-1.4.2-137.7.2-137.7H506.5v145c0,10.4,12,24.2,24.2,24.2h98.9c13.9,0,25.2-13.4,25.4-24.2V221.3Z"/><path d="M692.1,229.3h0a26.26,26.26,0,0,0-7.8,18.6v50.4a27,27,0,0,0,7.3,17.2c4.9,4.9,11.3,7.3,19.3,7.3h89c.9,0,1.6,0,1.6,2.4v30.4c0,1.6-.7,3.8-1.2,3.8H719.1s-1.2-.5-1.2-.9V343.3H684v23.3c1.9,14.1,13.9,24.2,28.5,24.2h98.4c12,0,24-12.2,24-24.2V315.7c0-10.6-11.8-24.2-24.7-24.2H718.6a.74.74,0,0,1-.7-.7V253.4h82.2a3.38,3.38,0,0,1,1.6.7v18.8h33.2v-25c0-11.1-8.7-26.4-28-26.4H711.1A26.7,26.7,0,0,0,692.1,229.3Z"/></g></g></g></g></svg>