<svg id="Layer_1" data-name="Layer 1" xmlns="http://www.w3.org/2000/svg" viewBox="0 0 1000 230"><defs><style>.cls-1{fill:#b94446;}.cls-2{fill:#101a45;}</style></defs><title>Tommy_Hilfiger_logo</title><path class="cls-1" d="M173.3,169.9c0-1.1.1-2.3.1-3.4V61.8c0-.6-.1-1.2-.1-1.9H346.6a3.4,3.4,0,0,1,.1,1V169a3.4,3.4,0,0,1-.1,1H173.3Z"/><path class="cls-2" d="M346.6,59.9H1.8C0,59.9,0,59.9,0,58.2V6.4C0,5.2.2,4.9,1.4,4.9H345.3c1.1,0,1.4.2,1.4,1.4V58.7A4.9,4.9,0,0,1,346.6,59.9Z"/><path class="cls-2" d="M173.3,169.9H346.6c.1,2.1.1,4.2.1,6.2v46.9c0,1.9,0,2-1.9,2H1.7c-1.4,0-1.7-.4-1.7-1.8V171.4c0-1.2.3-1.5,1.5-1.5H173.3Z"/><path class="cls-2" d="M802.4,29.9l-7.3,9L779.5,58.1c-1.1,1.3-2.3,1.3-3.4-.1L754.5,31.4,753.3,30V86.8c0,1.1-.2,1.4-1.3,1.4-2.9-.1-5.7-.1-8.5,0-.9,0-1.2-.2-1.2-1.1V14.7c0-.9.2-1.2,1.2-1.2h7.9a2.5,2.5,0,0,1,2.1,1.1c7.9,9.7,15.9,19.3,23.8,28.9l.5.6,8.3-10,16.5-19.9a1.7,1.7,0,0,1,1.5-.7h8.2c1,0,1.1.4,1.1,1.3V86.7c0,1.3-.3,1.5-1.5,1.5s-5.5-.1-8.2,0c-1.1,0-1.4-.3-1.4-1.4.1-18.4.1-36.7.1-55.1Z"/><path class="cls-2" d="M669.5,29.9,657.9,44.2l-11.5,14a1.8,1.8,0,0,1-3,0L621.8,31.7l-1.1-1.4c-.5.5-.3,1-.3,1.5V86.7c0,1.1-.2,1.5-1.5,1.5s-5.5-.1-8.3,0c-1,0-1.2-.2-1.2-1.2V14.9c-.1-1.1.2-1.4,1.3-1.4h8.1a1.7,1.7,0,0,1,1.5.7l23.5,28.7c1.3,1.5,1,1.4,2.1,0l23.6-28.5a2.2,2.2,0,0,1,1.9-.9h7.8c1,0,1.2.2,1.2,1.3v72c0,1.2-.2,1.4-1.3,1.4-2.8-.1-5.5-.1-8.2,0-1.1,0-1.4-.2-1.4-1.3v-57Z"/><path class="cls-2" d="M558,49.2c0,10.1-2.5,17.9-7.7,24.6a35.9,35.9,0,0,1-14.6,11.5,41.9,41.9,0,0,1-13,3.6,45.9,45.9,0,0,1-9.1.3c-8.5-.8-16.4-3.2-23.2-8.6a36.7,36.7,0,0,1-13.5-21.8,35.8,35.8,0,0,1-.8-10.8,38,38,0,0,1,7.8-20.3c6.5-8.2,15-12.8,25.2-14.5a46.5,46.5,0,0,1,26.1,3,36.5,36.5,0,0,1,19.7,19.3A39,39,0,0,1,558,49.2Zm-40.8,30a23.5,23.5,0,0,0,6.3-.6c22.2-4.4,28.6-27.9,18.9-42.9-6.4-10-16.1-13.8-27.5-13.1-16.7,1.1-27.7,12.9-27.4,29.2.2,10.9,5.5,19,15.1,24.1A28.8,28.8,0,0,0,517.2,79.2Z"/><path class="cls-2" d="M816.4,162.2a59.8,59.8,0,0,0-13-5.2,70.5,70.5,0,0,0-10.2-1.9,32.3,32.3,0,0,0-15.1,1.7c-8.4,3.2-14.2,9-17,17.5a27.4,27.4,0,0,0,19.4,36c8.7,2.4,17.2,1.2,25.6-1.4.6-.2.8-.5.8-1,0-4.6-.1-9.1,0-13.7,0-.9-.5-.8-1.1-.8H793.4c-1,0-1.2-.2-1.2-1.2s.1-4.9,0-7.4c0-.8.1-1.1,1.1-1.1h23.6c.7,0,1,.2,1,1v29.8c0,.7-.2.9-.8,1.2a74.7,74.7,0,0,1-17.5,5,63.3,63.3,0,0,1-14.4.7,41.5,41.5,0,0,1-22.6-8.2A35.9,35.9,0,0,1,751.9,200a33.6,33.6,0,0,1-3.4-12.1c-1.2-12.7,2.7-23.6,12-32.3a38.6,38.6,0,0,1,19.3-9.7,52,52,0,0,1,9.6-.9c8.3-.1,16.2,2.1,23.9,5,2.6,1,3.4,2.3,3.1,4.9S816.4,159.7,816.4,162.2Z"/><path class="cls-2" d="M445.9,183.2c0,12-.1,23.9,0,35.9,0,1-.2,1.4-1.3,1.4h-8.5c-1,0-1.3-.3-1.3-1.3.1-9.9,0-19.8.1-29.8,0-1-.2-1.4-1.4-1.3h-40c-1.1-.1-1.3.2-1.3,1.3v29.7c0,1.1-.2,1.4-1.4,1.4h-8.4c-.8,0-1.2-.1-1.2-1.1V147c0-.8.2-1.1,1-1.1H391c1,0,1.2.3,1.2,1.3v29.6c0,1.2.2,1.6,1.5,1.6h39.8c1.2.1,1.4-.3,1.4-1.3-.1-9.9,0-19.8-.1-29.7,0-1.1.3-1.4,1.4-1.4h8.5c1,0,1.2.3,1.2,1.3C445.8,159.2,445.9,171.2,445.9,183.2Z"/><path class="cls-2" d="M972.9,185.1a38.4,38.4,0,0,1,6.4,5.6,76.4,76.4,0,0,1,7.9,11c3.8,6.1,7.9,12,12.2,17.7l.6.9a1.7,1.7,0,0,1-1.2.2H988.1a1.8,1.8,0,0,1-1.8-1l-12.2-18.4a55.4,55.4,0,0,0-6.5-8c-3.3-3.4-7.2-5.3-12-5-1.1.1-2.5-.5-3.2.3s-.2,2-.2,3V219c0,1.3-.3,1.5-1.5,1.5h-8.5c-.8,0-1-.2-1-1V146.9c0-.8.2-1,.9-1h20a28.1,28.1,0,0,1,12.4,2.8c8.4,4.2,11.8,12,10.8,20.7s-4.9,12.3-11.6,15.2Zm-20.7-18.3v10.6c0,.6,0,1.1.9,1.1,3.2-.1,6.5.2,9.7-.3s6.9-1.5,9.1-4.4a11.3,11.3,0,0,0-6.8-18.1c-3.9-.8-7.9-.4-11.8-.5-.9-.1-1.1.2-1.1,1.1Z"/><path class="cls-2" d="M859.5,183.1V147.2c0-1,.3-1.3,1.3-1.3h40.8c1,0,1.3.2,1.2,1.2v7.3c.1,1.1-.3,1.2-1.2,1.2H872.2c-1.3,0-1.7.2-1.7,1.5.1,6.6.1,13.1,0,19.7,0,1,.4,1.2,1.4,1.2h28.6c.9,0,1.3.1,1.2,1.2s0,4.8,0,7.3c.1.9-.2,1.2-1.2,1.2H872.2c-1.3,0-1.7.2-1.7,1.5.1,6.7.1,13.5,0,20.2,0,1.2.4,1.5,1.6,1.5h30.5c1,0,1.3.3,1.3,1.3-.1,2.5-.1,4.9-.1,7.4.1.8-.1,1-.9,1H860.5c-1.1,0-1-.5-1-1.2Z"/><path class="cls-2" d="M623.7,183.1c0-11.9.1-23.8,0-35.8,0-1.2.4-1.4,1.5-1.4h37.9c1.2,0,1.4.3,1.4,1.5s-.1,4.6,0,6.9-.3,1.4-1.4,1.3H636.2c-1.1,0-1.5.2-1.5,1.4.1,6,.1,11.9,0,17.9,0,1.2.4,1.3,1.5,1.3h27c1,0,1.3.3,1.3,1.3s-.1,4.6,0,6.9-.4,1.5-1.6,1.5H637.1c-2.3,0-2.3,0-2.3,2.4v30.9c0,1.2-.3,1.4-1.5,1.4H625c-1.1,0-1.3-.4-1.3-1.4Z"/><path class="cls-2" d="M409.8,55.7V86.9c0,1-.2,1.3-1.3,1.3-2.8-.1-5.7-.1-8.5,0-1.1,0-1.3-.3-1.3-1.4V24.3c0-.9-.2-1.1-1.1-1.1h-24c-1.1,0-1.4-.4-1.3-1.4s.1-4.6,0-6.9.3-1.5,1.4-1.5h61.5c.7,0,.9.3.9,1,0,2.4-.1,4.9,0,7.4s-.2,1.4-1.3,1.4H411.2c-1.1,0-1.5.2-1.5,1.4C409.8,35,409.8,45.4,409.8,55.7Z"/><path class="cls-2" d="M894.4,39.2l9.5-11.8,10.5-13c.3-.4.6-.9,1.2-.9h12.8l-3.3,4.1L900.8,47.8a3.4,3.4,0,0,0-.7,2.2V86.8c0,1.1-.2,1.4-1.4,1.4-2.7-.1-5.4-.1-8.2,0-1.1,0-1.5-.2-1.5-1.5.1-12.2,0-24.5.1-36.7a3.8,3.8,0,0,0-.9-2.4L861.8,14.9a2.9,2.9,0,0,1-.8-1.3c3.3,0,6.5.1,9.8-.1s3.8.7,5.3,2.6c5.8,7.5,11.8,14.9,17.7,22.3Z"/><path class="cls-2" d="M547,183.2c0-12,0-23.9-.1-35.9,0-1.1.3-1.4,1.4-1.4h8.5c1,0,1.2.3,1.2,1.2v56.5c0,1.9,0,3.9-.1,5.8s.2,1.5,1.5,1.5h31.5c1.2,0,1.6.2,1.5,1.5s-.1,4.8,0,7.1-.2,1.1-1,1.1H548c-1,0-1.1-.5-1-1.3Z"/><path class="cls-2" d="M502.1,183.3v35.9c0,.9-.1,1.3-1.3,1.3h-8.6c-.8,0-1.2-.2-1.2-1.1V147c0-.8.2-1.1,1.1-1.1H501c.9,0,1.1.3,1.1,1.2Z"/><path class="cls-2" d="M713.8,183.2c0,11.9-.1,23.9,0,35.9,0,1.1-.3,1.4-1.5,1.4H704c-1.1,0-1.3-.3-1.3-1.3v-67c0-1.8.1-3.6,0-5.3s.2-1,1-1h8.8c1,0,1.3.2,1.3,1.2C713.7,159.2,713.8,171.2,713.8,183.2Z"/></svg>