<svg id="Layer_1" data-name="Layer 1" xmlns="http://www.w3.org/2000/svg" viewBox="0 0 250 250"><defs><style>.cls-1{fill:#122a57;}.cls-2{fill:#fff;}</style></defs><title>Artboard 1</title><rect class="cls-1" width="250" height="250"/><path class="cls-2" d="M105.6,40.6c-34.7,6.3-61.2,31-69.8,64.9C34,112.6,33.7,116,34.1,128s.8,15.1,3.7,23.6c7.6,22.3,22.3,39.1,43.4,49.5a82.7,82.7,0,0,0,33.7,8.8l8.5.2.3-5.3.3-5.2h-8.2c-10.2,0-19-2.1-29.4-7-26.5-12.4-42.5-37.2-42.7-66.5-.2-12.7,2-22.2,7.8-34,17.6-36.2,58.9-51.8,96.1-36.4,14.2,6,28,18,35.4,30.8l3.4,6h10.5L195.5,89c-2.7-6.4-10.4-17.2-16.8-23.7C163,49.4,143.7,40.8,121.4,40,115.4,39.9,108.2,40.1,105.6,40.6Z"/><path class="cls-2" d="M167.6,42.4a4.8,4.8,0,0,0-1.7,3c0,1.4,15.9,14.2,17.7,14.2s3.8-4.4,3-6.4-14.8-12.6-16.4-12.6A4.8,4.8,0,0,0,167.6,42.4Z"/><path class="cls-2" d="M115.3,58.2c-1,3.7.7,7.9,3.1,7.9s2-.7,2-5-.3-5-2.2-5.3S115.8,56.1,115.3,58.2Z"/><path class="cls-2" d="M116.5,84.8c-.3,2.9-.8,10-1.1,15.8s-1.1,13.8-1.7,17.9c-1.1,7.3-1.1,7.5,1.3,9.3,6.5,5.1,28.2,18.7,29,18.2s.4-3.4-9.6-12.7c-8-7.5-10.6-10.5-11-13s-1.1-11.5-1.8-21.7c-1-15.9-1.4-18.5-2.9-18.8S117,80.5,116.5,84.8Z"/><path class="cls-2" d="M138.1,106.8c.2.6,2.3,1.7,4.6,2.4,7.7,2.2,7.2-.9,7.2,43.9s.5,42-7.3,44c-2.2.6-4.2,1.6-4.5,2.3s3.3,1.2,14.5,1.3l37.6.5c17.4.3,22.9.1,23.2-.9s1.1-6.6,1.8-13.2c1-8.5,1.1-12.2.3-12.7s-3.4,1-5.1,6.2c-2.4,7.1-6.7,12.6-11.2,14.1-2.3.8-9.1,1.3-17.1,1.3-12.1.1-13.5-.1-14.8-1.8s-1.4-6.1-1.4-20.9V154.4l11.6.4c10.7.3,11.7.5,13.4,2.6a17.7,17.7,0,0,1,2.6,6.7c.5,3.5,1,4.5,2.5,4.5s1.9-1,1.9-17c0-13.8-.3-17-1.4-17s-2.2,2.4-3.2,5.7c-2.6,7.8-5.5,9.3-18.2,9.3h-9.2l.2-19.8.3-19.7,13.7.2c9.3.1,14.7.7,17.2,1.7s9.1,8.2,10.1,12.6a7.8,7.8,0,0,0,2.1,4c2.3,2,2.7-1,1.9-12.5l-.7-10.5H174.2C147.1,105.6,137.8,105.9,138.1,106.8Z"/><path class="cls-2" d="M49.3,123.1c-1.3,3.2.4,4.6,4.8,4.3s4.4-.8,4.6-2.2a2.7,2.7,0,0,0-1-2.7C55.5,121.1,49.9,121.5,49.3,123.1Z"/><path class="cls-2" d="M116.1,184.8c-1.7,1.7-1.5,7.3.3,8.8s4.6.4,4.3-4.7S118.6,182.3,116.1,184.8Z"/></svg>