<svg width="188" height="83" viewBox="0 0 188 83" fill="none" xmlns="http://www.w3.org/2000/svg">
<path d="M19.1295 23.1385C22.7351 24.0605 24.558 27.8956 25.2084 30.8929C25.3767 31.6064 25.8166 32.2128 26.6334 32.2128C27.871 32.2128 27.871 31.0613 27.871 30.8929V22.3198C27.871 22.1324 27.871 21 26.6334 21C26.0883 21 25.8166 21.2927 25.5852 21.7747C25.3557 22.2567 25.1261 22.4881 24.537 22.4881C23.5309 22.4881 20.5546 21.0421 19.1085 21L19.1295 23.1385ZM25.48 42.3161C24.6212 45.0418 22.1058 46.9259 19.1295 47.5572V49.7148C23.154 49.8621 27.8499 45.4397 27.9131 42.4213C27.9131 41.7518 27.4923 41.1627 26.7597 41.1627C25.941 41.1627 25.7114 41.7079 25.48 42.3161ZM17.3889 47.5763C15.545 47.1364 14.9176 45.6272 14.9176 44.0759V26.5739C14.9176 25.0245 15.545 23.5134 17.3908 23.1385V21C9.8659 21.2506 4.83527 27.3084 4.83527 35.8394C4.83527 43.4064 8.85977 49.5675 17.3908 49.7148L17.3889 47.5763ZM37.9514 26.7212H37.8481L33.1943 42.9225C32.4598 45.543 31.4116 46.4038 30.5948 46.8016C29.734 47.2224 29.0856 47.1574 29.0856 48.0602C29.0856 49.1276 30.4896 49.1696 31.2662 49.1696H35.7306C36.5053 49.1696 37.7429 49.2117 37.7429 48.1635C37.7429 47.4309 37.1977 47.1995 36.5895 46.9489C35.2697 46.3827 34.7245 45.7744 35.3538 43.5116L38.9996 30.8929L37.9514 26.7231V26.7212ZM43.8829 44.8314C44.2406 46.2775 44.0723 46.53 43.0662 47.0732C42.5631 47.3257 42.3317 47.5132 42.3317 48.1004C42.3317 49.0644 43.464 49.1276 44.2406 49.1276H53.8811C54.6156 49.1276 55.9985 49.1696 55.9985 48.1635C55.9985 47.5132 55.5777 47.2416 55.0345 47.012C53.9442 46.5721 53.9021 45.8796 53.6726 44.8314L47.8654 21.5241H39.2942L38.7911 23.5134L42.7085 39.8218H37.9705L37.4254 41.9603H43.0853L43.8829 44.8314ZM69.5392 25.6749C69.5392 24.311 69.4971 24.1025 70.859 23.6836C71.3621 23.5364 71.7198 23.2016 71.7198 22.6775C71.7198 21.6064 70.4382 21.5241 70.2928 21.5241H59.3325C59.1642 21.5241 57.9056 21.5872 57.9056 22.6775C57.9056 23.1806 58.2614 23.5364 58.7664 23.6836C60.1283 24.1025 60.0862 24.311 60.0862 25.6729V45.0208C60.0862 46.3827 60.1283 46.6122 58.7664 47.0101C58.2614 47.1574 57.9056 47.494 57.9056 48.0181C57.9056 49.0855 59.1853 49.1696 59.3306 49.1696H69.5602V25.6749H69.5392ZM71.2798 49.1696H79.4532V40.9753C79.4532 40.2618 79.369 39.5713 78.4891 39.5713C77.6705 39.5713 77.2095 39.7817 77.001 40.5984C76.1823 44.0357 74.3996 46.6122 71.2569 47.012V49.1696H71.2798ZM96.389 34.4565L100.182 26.5337C100.917 25.0226 101.357 24.4583 102.927 23.829C103.472 23.5995 103.893 23.347 103.893 22.7196C103.893 21.6083 102.803 21.5451 101.923 21.5451H97.6247C96.7027 21.5451 95.1093 21.3558 95.1093 22.6986C95.1093 24.2077 97.749 23.4101 97.749 25.6117C97.749 26.3443 97.4774 26.9316 97.1637 27.5609L95.1304 31.857L96.389 34.4565ZM86.0752 45.0208C86.0752 46.3827 86.1173 46.6122 84.7554 47.0101C84.2524 47.1574 83.8947 47.494 83.8947 48.0181C83.8947 49.0855 85.1762 49.1696 85.3216 49.1696H96.2819C96.4521 49.1696 97.7088 49.1065 97.7088 48.0181C97.7088 47.494 97.353 47.1574 96.8481 47.012C95.4862 46.5912 95.5283 46.3808 95.5283 45.0208V36.5089L90.7291 26.0727C90.5397 25.6328 90.3522 25.1508 90.3522 24.6687C90.3522 24.1446 90.6659 23.9973 91.0848 23.7888C91.5057 23.5364 91.9456 23.2227 91.9456 22.6775C91.9456 21.5031 90.6659 21.5662 89.8281 21.5662H80.2699C79.4532 21.5662 78.2156 21.5031 78.2156 22.6354C78.2156 23.2628 78.5924 23.4522 79.0955 23.7047C79.7458 24.1236 79.9562 24.5846 80.2279 25.254L86.0752 38.4599V45.0208ZM117.998 23.7047C120.052 23.9973 120.408 25.5065 120.408 27.184V32.7369C120.408 34.5406 120.303 36.0498 117.998 36.4668V38.6072C121.688 38.6072 123.845 38.2495 125.668 37.2434C128.541 35.6099 129.652 33.1768 129.652 30.0972C129.652 26.9947 128.52 24.5635 125.67 22.9491C123.845 21.943 121.688 21.5872 118 21.5872L117.998 23.7047ZM106.764 45.0208C106.764 46.3827 106.806 46.6122 105.444 47.0101C104.939 47.1574 104.583 47.494 104.583 48.0181C104.583 49.0855 105.863 49.1696 106.008 49.1696H116.971C117.139 49.1696 118.396 49.1065 118.396 48.0181C118.396 47.494 118.04 47.1574 117.537 47.012C116.175 46.5912 116.217 46.3808 116.217 45.0208V21.5451H105.987C105.842 21.5451 104.562 21.6083 104.562 22.6986C104.562 23.2016 104.918 23.5574 105.423 23.7047C106.785 24.1236 106.743 24.3321 106.743 25.694V45.0208H106.764ZM142.564 21C136.864 21.1894 132.608 24.6477 132.608 30.2636C132.608 36.0498 137.156 38.1654 142.019 40.1145C143.863 40.8911 146.755 41.8341 146.67 44.1811C146.588 46.2144 144.995 47.0311 143.151 47.5763V49.7148C148.893 49.6096 153.882 45.8796 153.882 40.1566C153.882 36.7614 152.33 33.3031 145.477 30.7877C140.867 29.0911 139.817 28.0008 139.817 26.1779C139.817 24.6668 141.097 23.6205 142.564 23.1595V21ZM152.833 22.6565C152.833 22.3619 152.918 21.1052 151.701 21.1052C150.695 21.1052 150.779 22.425 149.773 22.425C149.354 22.425 146.755 21.021 144.324 21V23.1385C147.342 23.7659 149.752 26.5758 150.171 29.2996C150.276 30.0341 150.632 30.7457 151.577 30.7457C152.686 30.7457 152.855 29.8237 152.855 28.9649V22.6565H152.833ZM132.608 48.0181C132.608 48.2056 132.608 49.5675 133.822 49.5675C134.786 49.5675 134.683 48.3529 135.919 48.3529C137.323 48.3529 138.036 49.6536 141.431 49.7148V47.5763C138.015 46.9259 135.856 43.2591 135.31 40.3039C135.205 39.6746 134.66 39.0892 133.885 39.0892C132.795 39.0892 132.65 40.1164 132.65 40.8911L132.608 48.0181ZM168.365 21C160.148 21.7135 156.313 28.0008 156.313 35.3574C156.313 42.714 160.148 49.0032 168.363 49.7148V47.5763C166.541 46.9489 166.393 45.8586 166.393 44.9366V25.8202C166.393 24.8983 166.562 23.7869 168.363 23.1595L168.365 21ZM170.125 49.7148C178.342 49.0032 182.176 42.714 182.176 35.3574C182.176 28.0008 178.344 21.7135 170.127 21V23.1385C171.95 23.7659 172.097 24.8791 172.097 25.7992V44.9156C172.097 45.8376 171.931 46.9489 170.127 47.5553V49.7167L170.125 49.7148Z" fill="black"/>
<path d="M105.276 65.2887L103.619 59.4604C103.577 59.2921 103.535 59.2079 103.535 59.0607C103.535 58.4753 104.291 58.6207 104.291 58.0756C104.291 57.5725 103.703 57.6165 103.348 57.6165H99.4705C99.0917 57.6165 98.3993 57.6165 98.3993 58.1387C98.3993 58.4333 98.5485 58.4964 98.7991 58.6207C99.0917 58.747 99.1338 58.8503 99.2199 59.1659L102.192 69.5026H104.163L105.274 65.2906L105.276 65.2887ZM106.156 57.6184L105.023 61.8304L107.204 69.4815H109.174L110.222 65.5182L108.042 57.5955L106.156 57.6165V57.6184ZM110.559 64.1774L110.601 64.1965L111.672 60.1509C111.881 59.3552 112.112 58.789 112.95 58.4543C113.16 58.3701 113.306 58.286 113.306 58.0545C113.306 57.6356 112.95 57.6146 112.613 57.6146H110.454C110.159 57.6146 109.803 57.6777 109.803 58.0545C109.803 58.6418 110.852 58.5155 110.852 59.3342C110.852 59.5637 110.788 59.7741 110.746 59.9845L110.117 62.4578L110.557 64.1755L110.559 64.1774ZM116.029 59.8392H115.985L113.973 66.8189C113.66 67.9494 113.22 68.3071 112.864 68.4945C112.506 68.6629 112.213 68.6629 112.213 69.0397C112.213 69.5007 112.822 69.5217 113.135 69.5217H115.064C115.4 69.5217 115.924 69.5427 115.924 69.0818C115.924 68.7681 115.693 68.6629 115.421 68.5577C114.855 68.3281 114.624 68.0546 114.876 67.0695L116.446 61.641L116.028 59.8392H116.029ZM118.585 67.6357C118.732 68.244 118.669 68.3702 118.229 68.5997C118.019 68.7049 117.915 68.7891 117.915 69.0397C117.915 69.4605 118.398 69.4796 118.732 69.4796H122.883C123.197 69.4796 123.805 69.5007 123.805 69.0607C123.805 68.7681 123.616 68.6629 123.384 68.5787C122.925 68.3912 122.902 68.0967 122.799 67.6567L120.305 57.6165H116.615L116.404 58.4773L118.082 65.4972H116.049L115.819 66.4211H118.248L118.585 67.6357ZM127.158 67.7199C127.158 68.3071 127.177 68.4123 126.592 68.5806C126.381 68.6418 126.236 68.7891 126.236 69.0206C126.236 69.4796 126.781 69.5007 126.844 69.5007H131.559C131.623 69.5007 132.168 69.4586 132.168 69.0186C132.168 68.7891 132.02 68.6629 131.812 68.5787C131.225 68.4123 131.246 68.3071 131.246 67.7179V57.6203H127.158V67.7199ZM134.409 57.6165H131.999V58.5385C132.86 59.1257 133.109 60.1739 133.258 61.0117C133.3 61.3694 133.403 61.7673 133.864 61.7673C134.367 61.7673 134.431 61.3694 134.431 61.3063L134.411 57.6165H134.409ZM124.013 61.3273C124.013 61.3904 124.056 61.7864 124.559 61.7864C125.02 61.7864 125.125 61.3694 125.167 61.0327C125.314 60.1949 125.544 59.1467 126.424 58.5595V57.6375H124.013V61.3273ZM140.972 58.3089C142.522 58.7068 143.317 60.3633 143.591 61.641C143.654 61.9566 143.841 62.2072 144.199 62.2072C144.744 62.2072 144.744 61.7252 144.744 61.641V57.9532C144.744 57.869 144.744 57.387 144.199 57.387C143.97 57.387 143.841 57.5113 143.759 57.7217C143.654 57.9321 143.549 58.0354 143.319 58.0354C142.879 58.0354 141.598 57.429 140.97 57.408V58.307L140.972 58.3089ZM143.717 66.5664C143.359 67.7409 142.269 68.5577 140.97 68.8101V69.7321C142.711 69.7952 144.723 67.8882 144.763 66.5875C144.763 66.2948 144.576 66.0423 144.26 66.0423C143.905 66.0423 143.801 66.2948 143.717 66.5664ZM140.217 68.8101C139.419 68.6208 139.146 67.9704 139.146 67.299V59.778C139.146 59.1085 139.398 58.4581 140.217 58.2898V57.3659C136.988 57.4711 134.809 60.0897 134.809 63.7374C134.809 66.9853 136.527 69.6479 140.217 69.7111V68.8101ZM151.345 59.3992C151.345 58.812 151.326 58.7068 151.911 58.5385C152.122 58.4773 152.267 58.3281 152.267 58.0985C152.267 57.6395 151.722 57.6165 151.661 57.6165H146.944C146.881 57.6165 146.336 57.6586 146.336 58.0985C146.336 58.3281 146.483 58.4562 146.714 58.5385C147.3 58.7278 147.279 58.812 147.279 59.3992V67.7199C147.279 68.3071 147.3 68.4123 146.714 68.5806C146.504 68.6418 146.336 68.7891 146.336 69.0206C146.336 69.4796 146.902 69.5007 146.944 69.5007H151.661C151.722 69.5007 152.267 69.4586 152.267 69.0186C152.267 68.7891 152.122 68.6629 151.911 68.5787C151.324 68.4123 151.345 68.3071 151.345 67.7179V59.3973V59.3992ZM153.568 67.7199C153.568 68.3071 153.587 68.4123 153.002 68.5806C152.791 68.6418 152.646 68.7891 152.646 69.0206C152.646 69.4796 153.191 69.5007 153.252 69.5007H157.969C158.032 69.5007 158.578 69.4586 158.578 69.0186C158.578 68.7891 158.43 68.6629 158.22 68.5787C157.635 68.4123 157.656 68.3071 157.656 67.7179V59.3973C157.656 58.812 157.635 58.7087 158.22 58.5385C158.43 58.4773 158.578 58.3281 158.578 58.0985C158.578 57.6395 158.032 57.6165 157.969 57.6165H153.231C153.17 57.6165 152.625 57.6586 152.625 58.0985C152.625 58.3281 152.77 58.4562 152.981 58.5385C153.568 58.7278 153.547 58.812 153.547 59.3992V63.0029H152.08V63.9268H153.547V67.7199H153.568ZM160.129 58.1215C160.129 58.351 160.274 58.4773 160.485 58.5614C161.072 58.7489 161.051 58.833 161.051 59.4203V67.7409C161.051 68.3281 161.07 68.4333 160.485 68.6016C160.274 68.6629 160.129 68.8101 160.129 69.0416C160.129 69.5007 160.672 69.5217 160.735 69.5217H165.137V57.6165H160.737C160.672 57.6165 160.129 57.6605 160.129 58.1215ZM165.892 58.5385C167.359 58.7699 168.218 59.5446 168.637 60.8242C168.721 61.0538 168.805 61.2221 169.098 61.2221C169.601 61.2221 169.601 60.9084 169.601 60.8453V57.6165H165.89L165.892 58.5385ZM165.892 69.5007H169.727V66.3369C169.727 66.2738 169.769 65.7918 169.245 65.7918C168.953 65.7918 168.847 66.0423 168.721 66.2738C168.281 67.5515 167.233 68.4123 165.89 68.5787V69.5026L165.892 69.5007ZM165.892 63.9058C166.584 64.0722 166.898 64.7015 167.045 65.3097C167.128 65.5814 167.233 65.8338 167.591 65.8338C168.113 65.8338 168.031 65.2677 168.031 65.1204V61.6831C168.031 61.5568 168.113 60.9907 167.591 60.9907C167.233 60.9907 167.151 61.2432 167.045 61.5148C166.898 62.123 166.584 62.7523 165.892 62.9207V63.9058ZM175.45 57.387C172.998 57.4711 171.152 58.9593 171.152 61.3694C171.152 63.8637 173.103 64.7646 175.198 65.6024C175.995 65.939 177.231 66.3579 177.21 67.3622C177.168 68.242 176.498 68.5997 175.701 68.8101V69.7321C178.174 69.69 180.311 68.0756 180.311 65.6234C180.311 64.1774 179.662 62.6682 176.686 61.5779C174.716 60.8453 174.257 60.3633 174.257 59.6077C174.257 58.9574 174.8 58.5174 175.429 58.307L175.45 57.387ZM179.873 58.0985C179.873 57.9742 179.915 57.429 179.391 57.429C178.951 57.429 178.993 57.9952 178.551 57.9952C178.363 57.9952 177.252 57.387 176.204 57.364V58.2879C177.505 58.5595 178.53 59.776 178.719 60.9275C178.782 61.2432 178.93 61.5358 179.327 61.5358C179.81 61.5358 179.894 61.1379 179.894 60.7822V58.0985H179.873ZM171.173 69.0206C171.173 69.1028 171.173 69.669 171.676 69.669C172.097 69.669 172.055 69.1449 172.577 69.1449C173.186 69.1449 173.501 69.7111 174.947 69.7321V68.8101C173.48 68.5156 172.537 66.9643 172.306 65.6866C172.264 65.4149 172.013 65.1625 171.697 65.1625C171.238 65.1625 171.152 65.6024 171.152 65.939L171.173 69.0206Z" fill="black"/>
</svg>
