<svg id="Layer_1" data-name="Layer 1" xmlns="http://www.w3.org/2000/svg" xmlns:xlink="http://www.w3.org/1999/xlink" viewBox="0 0 190 25"><defs><style>.cls-1{fill:none;}.cls-2{clip-path:url(#clip-path);}.cls-3{fill:#0a121b;}</style><clipPath id="clip-path"><rect class="cls-1" y="0.4" width="190" height="24.23"/></clipPath></defs><title>Police_logo2</title><g id="Logo"><g class="cls-2"><g id="Group_1" data-name="Group 1"><path id="Path_1" data-name="Path 1" class="cls-3" d="M7.4,12.5H19a2.3,2.3,0,0,0,2.5-2,.7.7,0,0,0-.1-.5V9.1c0-1.6-.8-2.6-3-2.6H7.5ZM0,.6H20.3c7.1,0,8.8,3.5,8.8,8.2v2c0,3.5-1.6,7.6-6.9,7.6H7.4v6H0Z"/><path id="Path_2" data-name="Path 2" class="cls-3" d="M43.5,13.8c0,3.4.7,4.7,4.2,4.7h9.6c3.5,0,4.2-1.3,4.2-4.7V11.2c0-2.9-.7-4.7-4.6-4.7H48.2c-4,0-4.7,1.8-4.7,4.7ZM35.8,9c0-7,4-8.6,10.7-8.6h12C65.2.4,69.2,2,69.2,9v7c0,7-4,8.6-10.7,8.6h-12c-6.7,0-10.7-1.6-10.7-8.6Z"/><path id="Path_3" data-name="Path 3" class="cls-3" d="M76.9.6h7.5V18.3h16.7v6H76.9Z"/><rect id="Rectangle_1" data-name="Rectangle 1" class="cls-3" x="108" y="0.6" width="7.4" height="23.7"/><path id="Path_4" data-name="Path 4" class="cls-3" d="M123.6,9c0-7,4-8.6,10.7-8.6H143c10.6,0,12,2.2,11.9,8.9h-7.4V8.7c0-1.7-1.3-2.2-3.5-2.2h-8.1c-4,0-4.7,1.8-4.7,4.7v2.6c0,3.4.7,4.7,4.3,4.7h7.9c3.4,0,4.4-.3,4.4-3.2h7.4v2.2c0,4-1.4,7.1-8.9,7.1h-12c-6.7,0-10.7-1.6-10.7-8.6Z"/><path id="Path_5" data-name="Path 5" class="cls-3" d="M163,.6h26.6V6.1H170.4V9.9h18.2v5H170.4v3.8H190v5.7H163Z"/></g></g></g></svg>