<svg id="Layer_1" data-name="Layer 1" xmlns="http://www.w3.org/2000/svg" viewBox="0 0 1000 85"><title>Rosefield_logo</title><path d="M150.8,1.4c-22.8,5-37.6,28.9-31.7,51.4,6.3,24.1,31.6,37.9,54.4,29.4,25.7-9.5,35.6-40.5,20.3-63.4-4.4-6.6-9.2-10.6-16.8-14.2C167.5.1,160.6-.7,150.8,1.4Zm20,9.3a34.1,34.1,0,0,1,20.8,41.7c-4.3,14.7-16.9,23.9-32.4,23.9-6,.1-7.8-.3-13.1-2.8a36.1,36.1,0,0,1-17.3-17.2c-2.2-4.6-2.6-6.3-2.6-13.3,0-10.3,2.2-16.3,8.8-23.2C144.6,9.4,158.2,5.9,170.8,10.7Z"/><path d="M281.9,2.1c-14,4.7-20.8,16.2-17.1,29.3.5,2,2.5,5,4.7,7.1,4.3,4.4,9.1,6,24.3,8.1s19.7,5.1,19.7,13.1c0,6.3-3.1,10.9-9.9,14.4-2.4,1.3-4.9,1.7-11.5,1.7s-8.8-.3-12.5-2.5-7.8-6.5-7.8-8.9-1-1.4-4.5-1.4-4.4,0-3.9,2.3c1,4.5,5.2,10.3,9.5,13.2,17.5,12.1,45,4,48.3-14.2,1.8-9.3-2-17-10.4-21.2-4.7-2.4-9.6-3.5-21.5-5.3-9.9-1.4-14.4-3.7-16.3-8.1-4.3-10.3,2.7-19.3,16.3-21.2a21.4,21.4,0,0,1,19,6.8c4,4.1,4.6,4.4,7.4,3.8s3.6-1.1,1.3-5.5-5.6-7.4-10.7-10S287.7.3,281.9,2.1Z"/><path d="M0,42.6V83.3H8V9.8H21.2c15.1,0,17.6.7,21.9,5.6,2.6,2.9,4.7,8,4.7,11.3s-2.1,8.4-5,11.5-9.2,6.2-18.2,6.2c-6.2,0-6.9.1-6.9,1.6s6.6,9.6,14.7,19.3L47,82.9l5.3.4c2.8.3,5.2.3,5.1,0L44.7,68C37.9,59.8,32.2,52.9,32,52.4s2-1.1,4.6-1.7c14.9-3.4,23-19.8,16.8-34.5C51.5,11.7,46,6.2,41.2,4S35.8,1.9,18.4,1.9H0Z"/><path d="M394.8,42.6V83.3h48.8l-.3-3.8-.2-3.7L423,75.5l-20.2-.2V47l19.7-.2,19.7-.2v-8l-19.7-.3H402.8V9.8H423l20.1-.3.2-3.8.3-3.7H394.8Z"/><path d="M519.6,42.6V83.3H528l-.2-18.1L527.5,47l17.5-.2,17.5-.2v-8l-17.5-.3H527.6V9.8h19.7L567,9.4V1.9H519.6Z"/><path d="M633.8,42.6V83.3h8V1.9h-8Z"/><path d="M715.3,42.6V83.3h47.8v-8H723.2V47h39V38.2h-39V9.8h39.9V1.9H715.3Z"/><path d="M827.7,42.6V83.3h48.8l-.3-3.8-.3-3.7-20.1-.3-20.1-.2V1.9h-8Z"/><path d="M931.3,42.7V83.4l20.1-.3,20.1-.2,6-2.9c17.6-8.2,26.6-30.2,20.7-49.9-3.1-10.2-8.9-18-16.6-22.6s-13.1-5.6-32.8-5.6H931.3Zm40.1-31.1c13,4.9,20.2,15.9,20.3,31,0,13.3-5.6,23.5-16.3,29.2l-5.6,3.1-15.3.3-15.3.3V9.8h13.7C964.5,9.8,967.4,10.1,971.4,11.6Z"/></svg>