<svg xmlns="http://www.w3.org/2000/svg" viewBox="0 0 225.8 55.8"><title>panRisorsa 1</title><g id="Livello_2" data-name="Livello 2"><g id="Livello_1-2" data-name="Livello 1"><path d="M33.3,27.1c0-9.3-8.8-8.9-8.8-8.9H12.6s-4.7.2-4.8-4.1V14c.1-4.3,4.8-4.1,4.8-4.1H31.9V3.2H11.8C3.2,3.2,0,8.1,0,14.3v.5c0,6.9,4.9,9.8,11.1,9.8h9.7c.5,0,4.7.1,4.8,3.6v.3c-.1,4.3-4.8,4.1-4.8,4.1H1.5v6.8H21.8c9.3,0,11.6-5,11.6-11.1v-.5Z"/><polygon points="50 24.4 71 24.4 71 17.7 50.1 17.7 50.1 9.7 71.6 9.7 71.6 3 42.1 3 42.1 39.2 71.5 39.2 71.5 32.4 50 32.4 50 24.4"/><path d="M86.9,19.8c0-6.1,2.7-10.1,8.1-10.1h12.2V3.1H94.9c-10.4,0-16.2,6.5-16.2,16.5v2.9c0,10.7,6,16.7,17,16.7h13.9l-2.4-6.7H95.1c-3.8,0-8.1-1.5-8.1-8.7Z"/><polygon points="132.9 9.8 132.9 39.1 124.8 39.1 124.8 9.8 113.6 9.8 113.6 3.1 143.8 3.1 143.8 9.8 132.9 9.8"/><path d="M153.1,17.1a15,15,0,0,0-.4,3.7c0,7.5,5.9,13.7,13.1,13.7s13.1-6.1,13.1-13.7a15,15,0,0,0-.4-3.7l5.9-4.3a21.66,21.66,0,0,1,1.6,8.1,20.45,20.45,0,0,1-20.2,20.7c-11.1,0-20.2-9.3-20.2-20.7a20.58,20.58,0,0,1,1.5-7.9Z"/><path d="M181.6,7.9a19.78,19.78,0,0,0-31.7.1l15.9,11.3Z" style="fill:#e91035"/><path d="M217.3,24.4l-.3-.6c3.1,0,6.9-3.7,6.9-8.1v-3c0-6-4.5-9.7-12-9.7H191.7V39.1h7.7V25h10.1l7.8,14.1h8.5Zm-4.6-6H199.4V9.8h12.2c2.9,0,4.9,1.7,4.9,4.2v.6A3.62,3.62,0,0,1,212.7,18.4Z"/><path d="M51.6,46.9v8.8H48.1L45,50.9a6.88,6.88,0,0,1-.7-1.3l-.4-.6-.3-.6h-.1v7.3H41.4V46.9h3.5l2.8,4.4c.3.4.5.9.9,1.4l.4.7.4.7h.1V46.8h2.1Z" style="fill:#e91035"/><path d="M66.5,46.8c2,0,3.3.3,3.8.8s.9,1.7.9,3.5c0,2-.3,3.3-.9,3.8s-2,.8-4.2.8c-2,0-3.3-.3-3.9-.8s-.9-1.7-.9-3.4q0-3.15.9-3.9C62.8,47.1,64.3,46.8,66.5,46.8Zm-.1,1.4c-1.4,0-2.2.1-2.4.4a7.15,7.15,0,0,0-.4,3c0,1.3.1,2,.4,2.3s1.1.4,2.4.4,2.1-.1,2.3-.4.4-1.2.4-2.6-.1-2.3-.4-2.6A3.45,3.45,0,0,0,66.4,48.2Z" style="fill:#e91035"/><path d="M95.8,46.9v7.3h5.1v1.5H93.7V46.9Z" style="fill:#e91035"/><path d="M112.5,46.9v8.8h-2.1V46.9Z" style="fill:#e91035"/><path d="M135.8,46.9v8.8h-2.1V48.3h-.1l-.2.6-.2.6c-.2.5-.4,1-.5,1.2l-2.4,4.9h-1.9L126,50.7c-.1-.3-.3-.7-.5-1.2l-.2-.6-.2-.6h-.2v7.3h-2.1V46.8h3.4l2,4.1c.1.3.3.7.5,1.2l.2.6.2.6h.1l.2-.6.2-.6c.2-.5.4-.9.5-1.2l1.9-4.1h3.8Z" style="fill:#e91035"/><path d="M148.3,46.9v8.8h-2.1V46.9Z" style="fill:#e91035"/><path d="M163.1,48.4v7.3H161V48.4h-3.2V46.9h8.5v1.5Z" style="fill:#e91035"/><path d="M184,49.4h-2v-.2a1,1,0,0,0-.4-.9,4.66,4.66,0,0,0-1.6-.2,6.57,6.57,0,0,0-1.9.2.94.94,0,0,0-.5.9c0,.6.1.9.4,1a14.26,14.26,0,0,0,2.4.3,8.42,8.42,0,0,1,3.2.6c.5.3.7.9.7,1.9a2.75,2.75,0,0,1-.8,2.3,9.34,9.34,0,0,1-3.7.5,7.93,7.93,0,0,1-3.4-.5,2.22,2.22,0,0,1-.8-2V53h2v.2c0,.6.1,1,.4,1.1a8.21,8.21,0,0,0,2.2.2,6.25,6.25,0,0,0,1.8-.2c.3-.1.4-.5.4-1.1,0-.4-.1-.7-.3-.8a4.91,4.91,0,0,0-1.3-.3l-1.1-.1a8.6,8.6,0,0,1-3.3-.6c-.5-.3-.7-1-.7-2a2,2,0,0,1,.9-2,8.5,8.5,0,0,1,3.5-.5,7.7,7.7,0,0,1,3.3.5,1.81,1.81,0,0,1,.9,1.8v.2Z" style="fill:#e91035"/></g></g></svg>